<svg width="445" height="148" viewBox="0 0 445 148" fill="none" xmlns="http://www.w3.org/2000/svg">
<mask id="path-1-inside-1" fill="white">
<path fill-rule="evenodd" clip-rule="evenodd" d="M363.886 2.24C361.326 0.746667 358.51 0 355.438 0C351.129 0 347.929 1.17333 345.838 3.52V0.639999H332.078V48.064H346.542V33.28C348.59 35.2853 351.555 36.288 355.438 36.288C358.51 36.288 361.326 35.5627 363.886 34.112C366.489 32.6187 368.537 30.5067 370.03 27.776C371.566 25.0027 372.334 21.8027 372.334 18.176C372.334 14.5493 371.566 11.3493 370.03 8.576C368.537 5.80267 366.489 3.69067 363.886 2.24ZM356.078 23.232C355.011 24.4267 353.646 25.024 351.982 25.024C350.318 25.024 348.953 24.4267 347.886 23.232C346.819 22.0373 346.286 20.352 346.286 18.176C346.286 16 346.819 14.3147 347.886 13.12C348.953 11.8827 350.318 11.264 351.982 11.264C353.646 11.264 355.011 11.8827 356.078 13.12C357.145 14.3147 357.678 16 357.678 18.176C357.678 20.352 357.145 22.0373 356.078 23.232ZM401.978 0C396.986 0 393.21 1.472 390.65 4.416V0.639999H376.89V35.648H391.354V20.096C391.354 15.0613 393.829 12.544 398.778 12.544C399.76 12.544 400.826 12.6293 401.978 12.8V0ZM413.765 33.984C416.88 35.52 420.379 36.288 424.261 36.288C428.187 36.288 431.685 35.52 434.757 33.984C437.872 32.4053 440.283 30.2507 441.989 27.52C443.739 24.7467 444.613 21.6107 444.613 18.112C444.613 14.6133 443.739 11.4987 441.989 8.768C440.283 5.99467 437.872 3.84 434.757 2.304C431.685 0.768 428.187 0 424.261 0C420.379 0 416.88 0.768 413.765 2.304C410.693 3.84 408.283 5.99467 406.533 8.768C404.784 11.4987 403.909 14.6133 403.909 18.112C403.909 21.6107 404.784 24.7467 406.533 27.52C408.283 30.2507 410.693 32.4053 413.765 33.984ZM428.357 23.232C427.291 24.4267 425.925 25.024 424.261 25.024C422.597 25.024 421.232 24.4267 420.165 23.232C419.099 21.9947 418.565 20.288 418.565 18.112C418.565 15.936 419.099 14.2507 420.165 13.056C421.232 11.8613 422.597 11.264 424.261 11.264C425.925 11.264 427.291 11.8613 428.357 13.056C429.424 14.2507 429.957 15.936 429.957 18.112C429.957 20.288 429.424 21.9947 428.357 23.232ZM89.712 99.712L90 145.648H120.96L120.672 44.848H92.736L60.768 98.56L27.936 44.848H0V145.648H30.96V101.296L52.848 136.576H67.824L89.712 99.712ZM168.927 145.648V66.88H136.383V145.648H168.927ZM138.399 55.936C142.047 59.008 146.799 60.544 152.655 60.544C158.607 60.544 163.359 58.96 166.911 55.792C170.463 52.528 172.239 48.4 172.239 43.408C172.239 38.704 170.463 34.864 166.911 31.888C163.359 28.912 158.607 27.424 152.655 27.424C146.799 27.424 142.047 29.008 138.399 32.176C134.847 35.248 133.071 39.184 133.071 43.984C133.071 48.784 134.847 52.768 138.399 55.936ZM197.463 145.216C205.431 147.04 213.591 147.952 221.943 147.952C232.023 147.952 240.567 146.464 247.575 143.488C254.679 140.416 260.007 136.336 263.559 131.248C267.111 126.064 268.887 120.304 268.887 113.968C268.887 106.672 266.919 100.912 262.983 96.688C259.143 92.464 254.583 89.44 249.303 87.616C244.023 85.696 237.543 84.016 229.863 82.576C223.911 81.424 219.639 80.368 217.047 79.408C214.455 78.352 213.159 76.816 213.159 74.8C213.159 70.576 217.527 68.464 226.263 68.464C235.095 68.464 244.455 70.96 254.343 75.952L264.567 51.328C259.479 48.448 253.575 46.288 246.855 44.848C240.231 43.312 233.463 42.544 226.551 42.544C216.471 42.544 207.879 44.032 200.775 47.008C193.767 49.984 188.487 54.064 184.935 59.248C181.383 64.432 179.607 70.192 179.607 76.528C179.607 83.824 181.527 89.632 185.367 93.952C189.207 98.176 193.719 101.248 198.903 103.168C204.087 104.992 210.567 106.72 218.343 108.352C224.391 109.6 228.711 110.752 231.303 111.808C233.991 112.864 235.335 114.448 235.335 116.56C235.335 118.384 234.327 119.776 232.311 120.736C230.295 121.6 226.935 122.032 222.231 122.032C216.759 122.032 211.047 121.216 205.095 119.584C199.143 117.856 193.767 115.6 188.967 112.816L178.023 137.584C183.111 140.752 189.591 143.296 197.463 145.216ZM316.008 147.088C324.456 147.088 331.128 145.696 336.024 142.912L328.248 120.304C326.136 121.744 323.688 122.464 320.904 122.464C318.888 122.464 317.256 121.792 316.008 120.448C314.76 119.104 314.136 117.232 314.136 114.832V94.96H330.264V71.2H314.136V49.168H281.592V71.2H270.792V94.96H281.592V115.12C281.592 125.776 284.568 133.792 290.52 139.168C296.472 144.448 304.968 147.088 316.008 147.088Z"/>
</mask>
<path fill-rule="evenodd" clip-rule="evenodd" d="M363.886 2.24C361.326 0.746667 358.51 0 355.438 0C351.129 0 347.929 1.17333 345.838 3.52V0.639999H332.078V48.064H346.542V33.28C348.59 35.2853 351.555 36.288 355.438 36.288C358.51 36.288 361.326 35.5627 363.886 34.112C366.489 32.6187 368.537 30.5067 370.03 27.776C371.566 25.0027 372.334 21.8027 372.334 18.176C372.334 14.5493 371.566 11.3493 370.03 8.576C368.537 5.80267 366.489 3.69067 363.886 2.24ZM356.078 23.232C355.011 24.4267 353.646 25.024 351.982 25.024C350.318 25.024 348.953 24.4267 347.886 23.232C346.819 22.0373 346.286 20.352 346.286 18.176C346.286 16 346.819 14.3147 347.886 13.12C348.953 11.8827 350.318 11.264 351.982 11.264C353.646 11.264 355.011 11.8827 356.078 13.12C357.145 14.3147 357.678 16 357.678 18.176C357.678 20.352 357.145 22.0373 356.078 23.232ZM401.978 0C396.986 0 393.21 1.472 390.65 4.416V0.639999H376.89V35.648H391.354V20.096C391.354 15.0613 393.829 12.544 398.778 12.544C399.76 12.544 400.826 12.6293 401.978 12.8V0ZM413.765 33.984C416.88 35.52 420.379 36.288 424.261 36.288C428.187 36.288 431.685 35.52 434.757 33.984C437.872 32.4053 440.283 30.2507 441.989 27.52C443.739 24.7467 444.613 21.6107 444.613 18.112C444.613 14.6133 443.739 11.4987 441.989 8.768C440.283 5.99467 437.872 3.84 434.757 2.304C431.685 0.768 428.187 0 424.261 0C420.379 0 416.88 0.768 413.765 2.304C410.693 3.84 408.283 5.99467 406.533 8.768C404.784 11.4987 403.909 14.6133 403.909 18.112C403.909 21.6107 404.784 24.7467 406.533 27.52C408.283 30.2507 410.693 32.4053 413.765 33.984ZM428.357 23.232C427.291 24.4267 425.925 25.024 424.261 25.024C422.597 25.024 421.232 24.4267 420.165 23.232C419.099 21.9947 418.565 20.288 418.565 18.112C418.565 15.936 419.099 14.2507 420.165 13.056C421.232 11.8613 422.597 11.264 424.261 11.264C425.925 11.264 427.291 11.8613 428.357 13.056C429.424 14.2507 429.957 15.936 429.957 18.112C429.957 20.288 429.424 21.9947 428.357 23.232ZM89.712 99.712L90 145.648H120.96L120.672 44.848H92.736L60.768 98.56L27.936 44.848H0V145.648H30.96V101.296L52.848 136.576H67.824L89.712 99.712ZM168.927 145.648V66.88H136.383V145.648H168.927ZM138.399 55.936C142.047 59.008 146.799 60.544 152.655 60.544C158.607 60.544 163.359 58.96 166.911 55.792C170.463 52.528 172.239 48.4 172.239 43.408C172.239 38.704 170.463 34.864 166.911 31.888C163.359 28.912 158.607 27.424 152.655 27.424C146.799 27.424 142.047 29.008 138.399 32.176C134.847 35.248 133.071 39.184 133.071 43.984C133.071 48.784 134.847 52.768 138.399 55.936ZM197.463 145.216C205.431 147.04 213.591 147.952 221.943 147.952C232.023 147.952 240.567 146.464 247.575 143.488C254.679 140.416 260.007 136.336 263.559 131.248C267.111 126.064 268.887 120.304 268.887 113.968C268.887 106.672 266.919 100.912 262.983 96.688C259.143 92.464 254.583 89.44 249.303 87.616C244.023 85.696 237.543 84.016 229.863 82.576C223.911 81.424 219.639 80.368 217.047 79.408C214.455 78.352 213.159 76.816 213.159 74.8C213.159 70.576 217.527 68.464 226.263 68.464C235.095 68.464 244.455 70.96 254.343 75.952L264.567 51.328C259.479 48.448 253.575 46.288 246.855 44.848C240.231 43.312 233.463 42.544 226.551 42.544C216.471 42.544 207.879 44.032 200.775 47.008C193.767 49.984 188.487 54.064 184.935 59.248C181.383 64.432 179.607 70.192 179.607 76.528C179.607 83.824 181.527 89.632 185.367 93.952C189.207 98.176 193.719 101.248 198.903 103.168C204.087 104.992 210.567 106.72 218.343 108.352C224.391 109.6 228.711 110.752 231.303 111.808C233.991 112.864 235.335 114.448 235.335 116.56C235.335 118.384 234.327 119.776 232.311 120.736C230.295 121.6 226.935 122.032 222.231 122.032C216.759 122.032 211.047 121.216 205.095 119.584C199.143 117.856 193.767 115.6 188.967 112.816L178.023 137.584C183.111 140.752 189.591 143.296 197.463 145.216ZM316.008 147.088C324.456 147.088 331.128 145.696 336.024 142.912L328.248 120.304C326.136 121.744 323.688 122.464 320.904 122.464C318.888 122.464 317.256 121.792 316.008 120.448C314.76 119.104 314.136 117.232 314.136 114.832V94.96H330.264V71.2H314.136V49.168H281.592V71.2H270.792V94.96H281.592V115.12C281.592 125.776 284.568 133.792 290.52 139.168C296.472 144.448 304.968 147.088 316.008 147.088Z" fill="#FAFF00"/>
<path d="M363.886 2.24L363.382 3.10378L363.391 3.10871L363.399 3.11348L363.886 2.24ZM345.838 3.52H344.838V6.14574L346.585 4.18521L345.838 3.52ZM345.838 0.639999H346.838V-0.360001H345.838V0.639999ZM332.078 0.639999V-0.360001H331.078V0.639999H332.078ZM332.078 48.064H331.078V49.064H332.078V48.064ZM346.542 48.064V49.064H347.542V48.064H346.542ZM346.542 33.28L347.242 32.5655L345.542 30.9013V33.28H346.542ZM363.886 34.112L364.379 34.982L364.384 34.9794L363.886 34.112ZM370.03 27.776L369.155 27.2915L369.153 27.2962L370.03 27.776ZM370.03 8.576L369.149 9.05014L369.155 9.0605L370.03 8.576ZM356.078 23.232L356.824 23.898L356.824 23.898L356.078 23.232ZM347.886 23.232L347.14 23.898L347.14 23.898L347.886 23.232ZM347.886 13.12L348.632 13.786L348.638 13.7795L348.643 13.7729L347.886 13.12ZM356.078 13.12L355.321 13.7729L355.326 13.7795L355.332 13.786L356.078 13.12ZM390.65 4.416H389.65V7.08998L391.405 5.07218L390.65 4.416ZM401.978 0H402.978V-1H401.978V0ZM390.65 0.639999H391.65V-0.360001H390.65V0.639999ZM376.89 0.639999V-0.360001H375.89V0.639999H376.89ZM376.89 35.648H375.89V36.648H376.89V35.648ZM391.354 35.648V36.648H392.354V35.648H391.354ZM401.978 12.8L401.832 13.7892L402.978 13.9591V12.8H401.978ZM413.765 33.984L413.308 34.8734L413.316 34.8772L413.323 34.8809L413.765 33.984ZM434.757 33.984L435.205 34.8784L435.21 34.876L434.757 33.984ZM441.989 27.52L441.144 26.9865L441.141 26.99L441.989 27.52ZM441.989 8.768L441.138 9.2921L441.143 9.29981L441.147 9.30743L441.989 8.768ZM434.757 2.304L434.31 3.19844L434.315 3.20087L434.757 2.304ZM413.765 2.304L413.323 1.40712L413.318 1.40957L413.765 2.304ZM406.533 8.768L407.375 9.30744L407.379 9.30151L406.533 8.768ZM406.533 27.52L405.688 28.0535L405.691 28.0594L406.533 27.52ZM428.357 23.232L429.103 23.898L429.109 23.8915L429.115 23.8849L428.357 23.232ZM420.165 23.232L419.408 23.8849L419.414 23.8915L419.42 23.898L420.165 23.232ZM420.165 13.056L420.911 13.722L420.911 13.722L420.165 13.056ZM428.357 13.056L427.611 13.722L427.611 13.722L428.357 13.056ZM90 145.648L89 145.654L89.0063 146.648H90V145.648ZM89.712 99.712L90.712 99.7057L90.6894 96.1071L88.8521 99.2015L89.712 99.712ZM120.96 145.648V146.648H121.963L121.96 145.645L120.96 145.648ZM120.672 44.848L121.672 44.8451L121.669 43.848H120.672V44.848ZM92.736 44.848V43.848H92.1675L91.8767 44.3366L92.736 44.848ZM60.768 98.56L59.9148 99.0815L60.7794 100.496L61.6273 99.0714L60.768 98.56ZM27.936 44.848L28.7892 44.3265L28.4968 43.848H27.936V44.848ZM0 44.848V43.848H-1V44.848H0ZM0 145.648H-1V146.648H0V145.648ZM30.96 145.648V146.648H31.96V145.648H30.96ZM30.96 101.296L31.8097 100.769L29.96 97.7873V101.296H30.96ZM52.848 136.576L51.9983 137.103L52.2916 137.576H52.848V136.576ZM67.824 136.576V137.576H68.3932L68.6839 137.087L67.824 136.576ZM168.927 66.88H169.927V65.88H168.927V66.88ZM168.927 145.648V146.648H169.927V145.648H168.927ZM136.383 66.88V65.88H135.383V66.88H136.383ZM136.383 145.648H135.383V146.648H136.383V145.648ZM138.399 55.936L137.733 56.6823L137.744 56.6918L137.754 56.7009L138.399 55.936ZM166.911 55.792L167.576 56.5383L167.582 56.5334L167.587 56.5283L166.911 55.792ZM166.911 31.888L166.268 32.6545L166.268 32.6545L166.911 31.888ZM138.399 32.176L139.053 32.9324L139.054 32.931L138.399 32.176ZM197.463 145.216L197.226 146.188L197.233 146.189L197.24 146.191L197.463 145.216ZM247.575 143.488L247.966 144.408L247.972 144.406L247.575 143.488ZM263.559 131.248L264.379 131.82L264.384 131.813L263.559 131.248ZM262.983 96.688L262.243 97.3607L262.252 97.3697L262.983 96.688ZM249.303 87.616L248.962 88.5558L248.969 88.5586L248.977 88.5612L249.303 87.616ZM229.863 82.576L229.673 83.5578L229.679 83.5589L229.863 82.576ZM217.047 79.408L216.67 80.3341L216.685 80.3402L216.7 80.3458L217.047 79.408ZM254.343 75.952L253.893 76.8447L254.854 77.33L255.267 76.3355L254.343 75.952ZM264.567 51.328L265.491 51.7115L265.83 50.8938L265.06 50.4577L264.567 51.328ZM246.855 44.848L246.629 45.8221L246.638 45.824L246.646 45.8258L246.855 44.848ZM200.775 47.008L200.389 46.0856L200.384 46.0876L200.775 47.008ZM184.935 59.248L185.76 59.8132L185.76 59.8132L184.935 59.248ZM185.367 93.952L184.62 94.6164L184.627 94.6247L185.367 93.952ZM198.903 103.168L198.556 104.106L198.564 104.109L198.571 104.111L198.903 103.168ZM218.343 108.352L218.138 109.331L218.141 109.331L218.343 108.352ZM231.303 111.808L230.926 112.734L230.938 112.739L231.303 111.808ZM232.311 120.736L232.705 121.655L232.723 121.647L232.741 121.639L232.311 120.736ZM205.095 119.584L204.817 120.544L204.824 120.546L204.831 120.548L205.095 119.584ZM188.967 112.816L189.469 111.951L188.504 111.391L188.053 112.412L188.967 112.816ZM178.023 137.584L177.109 137.18L176.758 137.974L177.495 138.433L178.023 137.584ZM336.024 142.912L336.518 143.781L337.239 143.371L336.97 142.587L336.024 142.912ZM328.248 120.304L329.194 119.979L328.767 118.74L327.685 119.478L328.248 120.304ZM316.008 120.448L316.741 119.768L316.741 119.768L316.008 120.448ZM314.136 94.96V93.96H313.136V94.96H314.136ZM330.264 94.96V95.96H331.264V94.96H330.264ZM330.264 71.2H331.264V70.2H330.264V71.2ZM314.136 71.2H313.136V72.2H314.136V71.2ZM314.136 49.168H315.136V48.168H314.136V49.168ZM281.592 49.168V48.168H280.592V49.168H281.592ZM281.592 71.2V72.2H282.592V71.2H281.592ZM270.792 71.2V70.2H269.792V71.2H270.792ZM270.792 94.96H269.792V95.96H270.792V94.96ZM281.592 94.96H282.592V93.96H281.592V94.96ZM290.52 139.168L289.85 139.91L289.856 139.916L290.52 139.168ZM355.438 1C358.34 1 360.981 1.703 363.382 3.10378L364.39 1.37622C361.671 -0.20967 358.68 -1 355.438 -1V1ZM346.585 4.18521C348.423 2.12194 351.304 1 355.438 1V-1C350.954 -1 347.434 0.224732 345.091 2.85479L346.585 4.18521ZM344.838 0.639999V3.52H346.838V0.639999H344.838ZM332.078 1.64H345.838V-0.360001H332.078V1.64ZM333.078 48.064V0.639999H331.078V48.064H333.078ZM346.542 47.064H332.078V49.064H346.542V47.064ZM345.542 33.28V48.064H347.542V33.28H345.542ZM355.438 35.288C351.722 35.288 349.044 34.3307 347.242 32.5655L345.842 33.9945C348.136 36.24 351.389 37.288 355.438 37.288V35.288ZM363.393 33.242C360.99 34.6036 358.345 35.288 355.438 35.288V37.288C358.675 37.288 361.662 36.5217 364.379 34.982L363.393 33.242ZM369.153 27.2962C367.744 29.8715 365.825 31.8465 363.388 33.2446L364.384 34.9794C367.152 33.3908 369.329 31.1419 370.907 28.2558L369.153 27.2962ZM371.334 18.176C371.334 21.6579 370.598 24.6866 369.155 27.2915L370.905 28.2605C372.534 25.3187 373.334 21.9475 373.334 18.176H371.334ZM369.155 9.0605C370.598 11.6654 371.334 14.6941 371.334 18.176H373.334C373.334 14.4045 372.534 11.0333 370.905 8.09151L369.155 9.0605ZM363.399 3.11348C365.825 4.46588 367.741 6.43465 369.149 9.05011L370.91 8.1019C369.332 5.17068 367.152 2.91546 364.373 1.36652L363.399 3.11348ZM351.982 26.024C353.918 26.024 355.559 25.3144 356.824 23.898L355.332 22.566C354.463 23.5389 353.374 24.024 351.982 24.024V26.024ZM347.14 23.898C348.405 25.3144 350.046 26.024 351.982 26.024V24.024C350.59 24.024 349.501 23.5389 348.632 22.566L347.14 23.898ZM345.286 18.176C345.286 20.5088 345.859 22.4631 347.14 23.898L348.632 22.566C347.78 21.6115 347.286 20.1952 347.286 18.176H345.286ZM347.14 12.454C345.859 13.8889 345.286 15.8432 345.286 18.176H347.286C347.286 16.1568 347.78 14.7405 348.632 13.786L347.14 12.454ZM351.982 10.264C350.033 10.264 348.389 11.0047 347.129 12.4671L348.643 13.7729C349.516 12.7606 350.603 12.264 351.982 12.264V10.264ZM356.835 12.4671C355.575 11.0047 353.931 10.264 351.982 10.264V12.264C353.361 12.264 354.448 12.7606 355.321 13.7729L356.835 12.4671ZM358.678 18.176C358.678 15.8432 358.105 13.8889 356.824 12.454L355.332 13.786C356.184 14.7405 356.678 16.1568 356.678 18.176H358.678ZM356.824 23.898C358.105 22.4631 358.678 20.5088 358.678 18.176H356.678C356.678 20.1952 356.184 21.6115 355.332 22.566L356.824 23.898ZM391.405 5.07218C393.725 2.4045 397.189 1 401.978 1V-1C396.784 -1 392.696 0.539505 389.896 3.75982L391.405 5.07218ZM389.65 0.639999V4.416H391.65V0.639999H389.65ZM376.89 1.64H390.65V-0.360001H376.89V1.64ZM377.89 35.648V0.639999H375.89V35.648H377.89ZM391.354 34.648H376.89V36.648H391.354V34.648ZM390.354 20.096V35.648H392.354V20.096H390.354ZM398.778 11.544C396.145 11.544 393.988 12.2149 392.497 13.731C391.01 15.2439 390.354 17.4288 390.354 20.096H392.354C392.354 17.7286 392.936 16.1375 393.924 15.133C394.908 14.1318 396.462 13.544 398.778 13.544V11.544ZM402.125 11.8108C400.933 11.6342 399.817 11.544 398.778 11.544V13.544C399.703 13.544 400.72 13.6244 401.832 13.7892L402.125 11.8108ZM400.978 0V12.8H402.978V0H400.978ZM424.261 35.288C420.514 35.288 417.169 34.5476 414.208 33.0871L413.323 34.8809C416.591 36.4924 420.244 37.288 424.261 37.288V35.288ZM434.31 33.0896C431.396 34.5468 428.054 35.288 424.261 35.288V37.288C428.32 37.288 431.975 36.4932 435.205 34.8784L434.31 33.0896ZM441.141 26.99C439.539 29.5532 437.272 31.5885 434.305 33.092L435.21 34.876C438.472 33.2222 441.026 30.9481 442.837 28.05L441.141 26.99ZM443.613 18.112C443.613 21.4351 442.785 24.3837 441.144 26.9865L442.835 28.0535C444.692 25.1096 445.613 21.7863 445.613 18.112H443.613ZM441.147 9.30743C442.785 11.8643 443.613 14.7888 443.613 18.112H445.613C445.613 14.4378 444.692 11.133 442.831 8.22858L441.147 9.30743ZM434.315 3.20087C437.273 4.6594 439.536 6.68985 441.138 9.2921L442.841 8.2439C441.029 5.29949 438.472 3.02061 435.2 1.40713L434.315 3.20087ZM424.261 1C428.054 1 431.396 1.74118 434.31 3.19843L435.205 1.40957C431.975 -0.205175 428.32 -1 424.261 -1V1ZM414.208 3.20087C417.169 1.74036 420.514 1 424.261 1V-1C420.244 -1 416.591 -0.204361 413.323 1.40713L414.208 3.20087ZM407.379 9.30151C409.026 6.6901 411.296 4.65682 414.213 3.19843L413.318 1.40957C410.091 3.02318 407.539 5.29924 405.688 8.23449L407.379 9.30151ZM404.909 18.112C404.909 14.7888 405.737 11.8643 407.375 9.30743L405.691 8.22858C403.831 11.133 402.909 14.4378 402.909 18.112H404.909ZM407.379 26.9865C405.737 24.3837 404.909 21.4351 404.909 18.112H402.909C402.909 21.7863 403.831 25.1096 405.688 28.0535L407.379 26.9865ZM414.223 33.0946C411.297 31.5911 409.023 29.5529 407.375 26.9806L405.691 28.0594C407.542 30.9484 410.09 33.2195 413.308 34.8734L414.223 33.0946ZM424.261 26.024C426.198 26.024 427.839 25.3144 429.103 23.898L427.611 22.566C426.743 23.5389 425.653 24.024 424.261 24.024V26.024ZM419.42 23.898C420.684 25.3144 422.325 26.024 424.261 26.024V24.024C422.87 24.024 421.78 23.5389 420.911 22.566L419.42 23.898ZM417.565 18.112C417.565 20.4472 418.139 22.4132 419.408 23.8849L420.923 22.5791C420.058 21.5761 419.565 20.1288 419.565 18.112H417.565ZM419.42 12.39C418.138 13.8249 417.565 15.7792 417.565 18.112H419.565C419.565 16.0928 420.059 14.6765 420.911 13.722L419.42 12.39ZM424.261 10.264C422.325 10.264 420.684 10.9736 419.42 12.39L420.911 13.722C421.78 12.7491 422.87 12.264 424.261 12.264V10.264ZM429.103 12.39C427.839 10.9736 426.198 10.264 424.261 10.264V12.264C425.653 12.264 426.743 12.7491 427.611 13.722L429.103 12.39ZM430.957 18.112C430.957 15.7792 430.385 13.8249 429.103 12.39L427.611 13.722C428.464 14.6765 428.957 16.0928 428.957 18.112H430.957ZM429.115 23.8849C430.384 22.4132 430.957 20.4472 430.957 18.112H428.957C428.957 20.1288 428.465 21.5761 427.6 22.5791L429.115 23.8849ZM91 145.642L90.712 99.7057L88.712 99.7183L89 145.654L91 145.642ZM120.96 144.648H90V146.648H120.96V144.648ZM119.672 44.8509L119.96 145.651L121.96 145.645L121.672 44.8451L119.672 44.8509ZM92.736 45.848H120.672V43.848H92.736V45.848ZM61.6273 99.0714L93.5953 45.3594L91.8767 44.3366L59.9087 98.0486L61.6273 99.0714ZM27.0828 45.3695L59.9148 99.0815L61.6212 98.0385L28.7892 44.3265L27.0828 45.3695ZM0 45.848H27.936V43.848H0V45.848ZM1 145.648V44.848H-1V145.648H1ZM30.96 144.648H0V146.648H30.96V144.648ZM29.96 101.296V145.648H31.96V101.296H29.96ZM53.6978 136.049L31.8097 100.769L30.1103 101.823L51.9983 137.103L53.6978 136.049ZM67.824 135.576H52.848V137.576H67.824V135.576ZM88.8521 99.2015L66.9641 136.065L68.6839 137.087L90.5719 100.223L88.8521 99.2015ZM167.927 66.88V145.648H169.927V66.88H167.927ZM136.383 67.88H168.927V65.88H136.383V67.88ZM137.383 145.648V66.88H135.383V145.648H137.383ZM168.927 144.648H136.383V146.648H168.927V144.648ZM152.655 59.544C146.979 59.544 142.472 58.0589 139.043 55.1711L137.754 56.7009C141.621 59.9571 146.619 61.544 152.655 61.544V59.544ZM166.245 55.0457C162.919 58.0123 158.425 59.544 152.655 59.544V61.544C158.788 61.544 163.798 59.9077 167.576 56.5383L166.245 55.0457ZM171.239 43.408C171.239 48.1312 169.572 51.9884 166.234 55.0557L167.587 56.5283C171.353 53.0676 173.239 48.6688 173.239 43.408H171.239ZM166.268 32.6545C169.59 35.4372 171.239 38.9947 171.239 43.408H173.239C173.239 38.4133 171.336 34.2908 167.553 31.1215L166.268 32.6545ZM152.655 28.424C158.44 28.424 162.943 29.868 166.268 32.6545L167.553 31.1215C163.775 27.956 158.773 26.424 152.655 26.424V28.424ZM139.054 32.931C142.484 29.9528 146.986 28.424 152.655 28.424V26.424C146.611 26.424 141.609 28.0632 137.743 31.421L139.054 32.931ZM134.071 43.984C134.071 39.467 135.726 35.8096 139.053 32.9324L137.744 31.4196C133.967 34.6864 132.071 38.901 132.071 43.984H134.071ZM139.064 55.1897C135.727 52.2133 134.071 48.5017 134.071 43.984H132.071C132.071 49.0663 133.966 53.3227 137.733 56.6823L139.064 55.1897ZM221.943 146.952C213.665 146.952 205.58 146.048 197.687 144.241L197.24 146.191C205.283 148.032 213.518 148.952 221.943 148.952V146.952ZM247.184 142.568C240.333 145.477 231.93 146.952 221.943 146.952V148.952C232.116 148.952 240.802 147.451 247.966 144.408L247.184 142.568ZM262.739 130.676C259.317 135.578 254.154 139.554 247.178 142.57L247.972 144.406C255.205 141.278 260.698 137.094 264.379 131.82L262.739 130.676ZM267.887 113.968C267.887 120.104 266.171 125.667 262.734 130.683L264.384 131.813C268.051 126.461 269.887 120.504 269.887 113.968H267.887ZM262.252 97.3697C265.973 101.363 267.887 106.856 267.887 113.968H269.887C269.887 106.488 267.866 100.461 263.715 96.0063L262.252 97.3697ZM248.977 88.5612C254.095 90.3292 258.514 93.2579 262.243 97.3607L263.723 96.0153C259.773 91.6701 255.072 88.5508 249.63 86.6708L248.977 88.5612ZM229.679 83.5589C237.325 84.9924 243.748 86.66 248.962 88.5558L249.645 86.6762C244.298 84.732 237.762 83.0396 230.048 81.5931L229.679 83.5589ZM216.7 80.3458C219.374 81.3363 223.716 82.4047 229.673 83.5578L230.053 81.5942C224.107 80.4434 219.904 79.3997 217.395 78.4703L216.7 80.3458ZM212.159 74.8C212.159 76.0432 212.566 77.1599 213.367 78.1089C214.152 79.0395 215.28 79.7677 216.67 80.3341L217.425 78.4819C216.223 77.9923 215.406 77.4245 214.896 76.8191C214.4 76.2322 214.159 75.5728 214.159 74.8H212.159ZM226.263 67.464C221.847 67.464 218.389 67.9927 216 69.1477C214.792 69.7318 213.822 70.4932 213.155 71.4604C212.483 72.4356 212.159 73.562 212.159 74.8H214.159C214.159 73.926 214.382 73.2044 214.802 72.5956C215.227 71.9788 215.895 71.4202 216.871 70.9483C218.85 69.9913 221.944 69.464 226.263 69.464V67.464ZM254.794 75.0593C244.801 70.0143 235.287 67.464 226.263 67.464V69.464C234.904 69.464 244.11 71.9057 253.893 76.8447L254.794 75.0593ZM263.644 50.9445L253.42 75.5685L255.267 76.3355L265.491 51.7115L263.644 50.9445ZM246.646 45.8258C253.284 47.2482 259.089 49.3761 264.075 52.1983L265.06 50.4577C259.87 47.5198 253.867 45.3278 247.065 43.8702L246.646 45.8258ZM226.551 43.544C233.389 43.544 240.081 44.3036 246.629 45.8221L247.081 43.8738C240.382 42.3204 233.538 41.544 226.551 41.544V43.544ZM201.162 47.9303C208.112 45.0188 216.565 43.544 226.551 43.544V41.544C216.378 41.544 207.647 43.0452 200.389 46.0857L201.162 47.9303ZM185.76 59.8132C189.184 54.8171 194.296 50.8458 201.166 47.9284L200.384 46.0876C193.238 49.1222 187.791 53.3109 184.11 58.6828L185.76 59.8132ZM180.607 76.528C180.607 70.392 182.323 64.8293 185.76 59.8132L184.11 58.6828C180.443 64.0347 178.607 69.992 178.607 76.528H180.607ZM186.115 93.2876C182.477 89.1949 180.607 83.6455 180.607 76.528H178.607C178.607 84.0025 180.578 90.0691 184.62 94.6164L186.115 93.2876ZM199.251 102.23C194.222 100.368 189.843 97.3888 186.107 93.2793L184.627 94.6247C188.572 98.9632 193.217 102.128 198.556 104.106L199.251 102.23ZM218.549 107.373C210.799 105.747 204.364 104.029 199.235 102.225L198.571 104.111C203.811 105.955 210.336 107.693 218.138 109.331L218.549 107.373ZM231.681 110.882C228.997 109.789 224.6 108.622 218.545 107.373L218.141 109.331C224.183 110.578 228.426 111.715 230.926 112.734L231.681 110.882ZM236.335 116.56C236.335 115.271 235.918 114.117 235.09 113.141C234.278 112.184 233.11 111.443 231.669 110.877L230.938 112.739C232.185 113.229 233.033 113.808 233.565 114.435C234.081 115.043 234.335 115.737 234.335 116.56H236.335ZM232.741 121.639C233.857 121.108 234.762 120.425 235.389 119.559C236.025 118.681 236.335 117.669 236.335 116.56H234.335C234.335 117.275 234.142 117.871 233.769 118.385C233.389 118.911 232.782 119.404 231.881 119.833L232.741 121.639ZM222.231 123.032C226.951 123.032 230.489 122.605 232.705 121.655L231.917 119.817C230.102 120.595 226.92 121.032 222.231 121.032V123.032ZM204.831 120.548C210.858 122.201 216.659 123.032 222.231 123.032V121.032C216.859 121.032 211.236 120.231 205.36 118.62L204.831 120.548ZM188.466 113.681C193.343 116.51 198.796 118.796 204.817 120.544L205.374 118.624C199.491 116.916 194.191 114.69 189.469 111.951L188.466 113.681ZM178.938 137.988L189.882 113.22L188.053 112.412L177.109 137.18L178.938 137.988ZM197.7 144.244C189.898 142.341 183.524 139.831 178.552 136.735L177.495 138.433C182.698 141.673 189.285 144.251 197.226 146.188L197.7 144.244ZM335.53 142.043C330.841 144.709 324.363 146.088 316.008 146.088V148.088C324.549 148.088 331.415 146.683 336.518 143.781L335.53 142.043ZM327.302 120.629L335.078 143.237L336.97 142.587L329.194 119.979L327.302 120.629ZM320.904 123.464C323.87 123.464 326.518 122.694 328.811 121.13L327.685 119.478C325.754 120.794 323.506 121.464 320.904 121.464V123.464ZM315.275 121.128C316.732 122.698 318.641 123.464 320.904 123.464V121.464C319.135 121.464 317.78 120.886 316.741 119.768L315.275 121.128ZM313.136 114.832C313.136 117.404 313.808 119.548 315.275 121.128L316.741 119.768C315.712 118.66 315.136 117.06 315.136 114.832H313.136ZM313.136 94.96V114.832H315.136V94.96H313.136ZM330.264 93.96H314.136V95.96H330.264V93.96ZM329.264 71.2V94.96H331.264V71.2H329.264ZM314.136 72.2H330.264V70.2H314.136V72.2ZM313.136 49.168V71.2H315.136V49.168H313.136ZM281.592 50.168H314.136V48.168H281.592V50.168ZM282.592 71.2V49.168H280.592V71.2H282.592ZM270.792 72.2H281.592V70.2H270.792V72.2ZM271.792 94.96V71.2H269.792V94.96H271.792ZM281.592 93.96H270.792V95.96H281.592V93.96ZM282.592 115.12V94.96H280.592V115.12H282.592ZM291.19 138.426C285.511 133.296 282.592 125.591 282.592 115.12H280.592C280.592 125.961 283.625 134.288 289.85 139.91L291.19 138.426ZM316.008 146.088C305.118 146.088 296.892 143.484 291.184 138.42L289.856 139.916C296.052 145.412 304.818 148.088 316.008 148.088V146.088Z" fill="#FAFF00" mask="url(#path-1-inside-1)"/>
</svg>
